<?xml version="1.0" standalone="no"?>
<!DOCTYPE svg PUBLIC "-//W3C//DTD SVG 20010904//EN"
 "http://www.w3.org/TR/2001/REC-SVG-20010904/DTD/svg10.dtd">
<svg version="1.0" xmlns="http://www.w3.org/2000/svg"
 width="225.000000pt" height="225.000000pt" viewBox="0 0 225.000000 225.000000"
 preserveAspectRatio="xMidYMid meet">

<g transform="translate(0.000000,225.000000) scale(0.100000,-0.100000)"
fill="#000000" stroke="none">
<path d="M261 1985 c-82 -18 -156 -43 -204 -67 l-37 -18 0 -620 c0 -341 3
-620 8 -620 4 0 32 9 62 21 228 87 481 89 685 5 l80 -32 40 18 c22 10 63 25
92 34 l52 17 78 -79 c123 -125 244 -178 408 -178 100 0 180 19 261 63 l52 28
147 -154 148 -154 44 43 c24 23 42 48 41 55 -2 7 -64 77 -139 156 l-137 143
44 65 c66 99 89 180 88 319 0 134 -17 190 -91 302 -57 87 -118 139 -220 189
l-83 41 0 173 0 174 -77 29 c-118 45 -184 57 -328 56 -143 -2 -233 -17 -348
-62 l-72 -28 -59 22 c-162 63 -402 90 -535 59z m358 -146 c46 -11 103 -28 127
-39 l44 -19 0 -429 c0 -236 -3 -450 -6 -474 l-6 -45 -72 19 c-103 29 -344 36
-450 14 -43 -9 -82 -16 -87 -16 -5 0 -9 207 -9 484 l0 483 63 18 c131 37 245
38 396 4z m874 -4 l57 -18 0 -118 0 -119 -38 0 c-59 0 -186 -36 -255 -72 -131
-69 -245 -220 -277 -370 -11 -49 -10 -197 2 -272 4 -25 -47 -42 -56 -19 -3 8
-6 221 -6 474 l0 458 31 17 c18 9 73 27 123 40 80 21 107 24 226 20 91 -2 154
-9 193 -21z m160 -415 c149 -46 259 -175 289 -340 32 -168 -74 -361 -241 -443
-62 -30 -72 -32 -176 -32 -105 0 -114 2 -180 34 -208 103 -299 347 -205 549
39 84 78 131 144 177 111 76 239 95 369 55z"/>
</g>
</svg>
